<svg xmlns="http://www.w3.org/2000/svg" viewBox="0 0 1080 1920">
  <defs>
    <style>
      .bg-blue { fill: #05f; }
      .bg-yellow { fill: #f9ea14; }
      .bg-red { fill: #ff0031; }
      .bg-transparent { fill: none; }
      .bg-overlay { opacity: .16; }
    </style>
  </defs>
  <rect width="1080" height="1920" fill="#0a0a1a"/>
  <!-- Blue circles -->
  <circle class="bg-blue" cx="98.85" cy="1239.76" r="225.83"/>
  <circle class="bg-blue" cx="-60.08" cy="997.3" r="225.83"/>
  <circle class="bg-blue" cx="-117.83" cy="1318.83" r="225.83"/>
  <circle class="bg-blue" cx="-146.85" cy="1612.13" r="225.83"/>
  <circle class="bg-blue" cx="-183.22" cy="1841.92" r="225.83"/>
  <circle class="bg-blue" cx="290.18" cy="1540.48" r="225.83"/>
  <circle class="bg-blue" cx="417.35" cy="1747.28" r="225.83"/>
  <circle class="bg-blue" cx="618.73" cy="2071.31" r="225.83"/>
  <circle class="bg-blue" cx="389.92" cy="2052.15" r="225.83"/>
  <circle class="bg-blue" cx="161.01" cy="1815.88" r="225.83"/>
  <circle class="bg-blue" cx="153.65" cy="1627.1" r="225.83"/>
  <circle class="bg-blue" cx="323.78" cy="1307.73" r="144.59"/>
  <circle class="bg-blue" cx="165.66" cy="985.04" r="144.59"/>
  <circle class="bg-blue" cx="240.89" cy="853.54" r="43.81"/>
  <circle class="bg-blue" cx="666.16" cy="1840.36" r="23.97"/>
  <circle class="bg-blue" cx="406.96" cy="1149.1" r="13.11"/>
  <circle class="bg-blue" cx="332.24" cy="1084.46" r="86.11"/>
  <circle class="bg-blue" cx="313.39" cy="964.66" r="46.06"/>
  <circle class="bg-blue" cx="466.71" cy="1393.73" r="57.68"/>
  <circle class="bg-blue" cx="540.01" cy="1334.15" r="29.06"/>
  <circle class="bg-blue" cx="475.29" cy="1251.48" r="29.06"/>
  <circle class="bg-blue" cx="655.37" cy="1753.03" r="13.7"/>
  <circle class="bg-blue" cx="703.55" cy="1546.16" r="13.7"/>
  <circle class="bg-blue" cx="529.62" cy="1437.12" r="12.82"/>
  <circle class="bg-blue" cx="554.04" cy="1543.63" r="77.98"/>
  <circle class="bg-blue" cx="619.47" cy="1640.62" r="82.86"/>
  <!-- Yellow circles (top area) -->
  <circle class="bg-yellow" cx="297.37" cy="-6.3" r="137.65"/>
  <circle class="bg-yellow" cx="98.94" cy="82.19" r="137.65"/>
  <circle class="bg-yellow" cx="-37.12" cy="140.38" r="137.65"/>
  <circle class="bg-yellow" cx="-55.56" cy="-20.32" r="137.65"/>
  <circle class="bg-yellow" cx="58.92" cy="-7.88" r="137.65"/>
  <circle class="bg-yellow" cx="240.34" cy="95.91" r="88.14"/>
  <circle class="bg-yellow" cx="444.99" cy="56.75" r="88.14"/>
  <circle class="bg-yellow" cx="517.55" cy="113.87" r="26.7"/>
  <circle class="bg-yellow" cx="572.45" cy="125.63" r="14.61"/>
  <circle class="bg-yellow" cx="324.49" cy="187.59" r="7.99"/>
  <circle class="bg-yellow" cx="370.15" cy="148.31" r="52.49"/>
  <circle class="bg-yellow" cx="444.07" cy="147.65" r="28.08"/>
  <circle class="bg-yellow" cx="171.65" cy="201.74" r="35.16"/>
  <circle class="bg-yellow" cx="201.02" cy="251.27" r="17.71"/>
  <circle class="bg-yellow" cx="262.9" cy="177.49" r="17.71"/>
  <circle class="bg-yellow" cx="73.46" cy="241" r="47.54"/>
  <circle class="bg-yellow" cx="9.12" cy="271.78" r="50.51"/>
  <!-- Central red flowing shapes -->
  <path class="bg-red" d="M280.17,1648.4c-1.25-4.02-3.55-7.47-6.56-10.14.58-2.24.58-4.63.13-7.19-.49-2.72-3.05-5.61-5.35-6.95-.84-.49-1.81-.88-2.84-1.16-.22-1.36-.44-2.71-.65-4.07-.74-4.58-1.47-9.15-2.21-13.73-1.44-8.93-2.88-17.87-4.32-26.8-2.91-18.08-5.82-36.17-8.74-54.25-1.52-9.43-3.1-18.85-4.41-28.31-.24-1.87-.47-3.75-.68-5.62.29-3.02.55-6.04.77-9.07.98-13.43,1.18-26.92.62-40.37-.24-5.82-4.24-10.64-10.09-11.43-5.45-.73-11.49,2.66-12.76,8.33-3.9,17.36-3.64,34.86-1.81,52.3-.36,3.69-.78,7.38-1.25,11.05-3.34,23.89-9.05,47.44-17.11,70.18-2.18,6.16-4.55,12.26-7.07,18.29-.26.61-.52,1.22-.79,1.83-.75-1.62-1.47-3.25-2.18-4.89-4.43-10.67-8.19-21.6-11.88-32.55-4.14-12.29-8.28-24.59-12.42-36.88-8.36-24.84-16.73-49.69-25.09-74.53-4.69-13.94-9.39-27.88-14.08-41.83-1.86-5.53-6.85-9.13-12.76-8.33-2.44.33-4.96,1.33-6.68,3.2-1.94,2.11-3.77,5.24-3.41,8.23,3.77,30.68,8.13,61.3,13.17,91.8,4.9,29.69,10.42,59.28,16.55,88.74,1.96,9.42,3.99,18.82,6.08,28.21-2.94-2.56-5.83-5.19-8.76-7.74-5.23-4.56-10.46-9.12-15.7-13.68-10.3-8.98-20.6-17.95-30.9-26.93-5.9-5.14-11.79-10.28-17.69-15.42-4.41-3.84-10.5-4.6-15.28-.91-4.29,3.31-6.3,10.21-3,15.01,12.2,17.71,22.59,36.63,31.05,56.4,8.33,20.06,14.69,40.92,18.86,62.24,1.15,5.86,2.12,11.75,2.94,17.66.13,1.01.26,2.03.38,3.04.32,2.64.83,4.93,2.34,6.98-.93,2.33-1.2,4.95-.34,7.2,1.3,3.41,3.02,6.2,6.24,8.08,2.27,1.33,5,1.99,7.63,1.94.11,0,.23,0,.34-.01,23.78,6.53,49.84,4.15,72.96-3.79,24.24-8.32,45.97-22.05,66.22-37.54,2.98-2.28,6.05-4.49,8.84-7,2.65-2.38,4.88-5.06,7.01-7.92,4.46-6.01,6.96-14.3,4.67-21.67Z"/>
  <path class="bg-red" d="M865,1899.24c.1-3.88-1.89-6.6-4.96-8.59-1.51-.98-3.22-1.73-4.93-2.34-14.97-5.34-30.23-9.71-45.53-13.97-6.68-1.86-13.53-3.29-19.99-5.74-16.37-6.21-32.65-12.67-48.8-19.44-27.96-11.71-55.03-25.25-81.1-40.75-13.98-8.32-27.39-17.43-39.94-27.79-8.2-6.77-15.58-14.3-21.99-22.81-1.91-2.53-4.03-5-6.45-7.02-3.43-2.85-7.5-3.39-11.53-1.21-3.97,2.14-5.74,5.71-5.72,10.18,0,2.54.88,4.81,2.05,7.02,2.96,5.61,6.81,10.6,10.98,15.32,5.68,6.43,11.5,12.73,17.26,19.09.65.71,1.25,1.46,1.87,2.2-32.74-11.72-65.93-21.07-100.14-26.86.57-.39,1.13-.61,1.7-.74,5.12-1.1,9.97-2.94,14.61-5.34,8.1-4.19,15.77-9.07,21.12-16.6,12.46-17.53,16.79-36.62,9.98-57.53-4.07-12.48-10.52-23.64-19.09-33.59-.62-.73-1.21-1.48-1.83-2.25.41-.24.55-.37.71-.4,8.17-1.54,11.34-7.74,7.79-15.23-.86-1.81-1.75-3.62-2.53-5.47-6.26-14.8-11.92-29.83-17.09-45.04-.2-.59-.31-1.21-.53-2.04,1.19-.19,2.25-.38,3.32-.53,12.13-1.68,24.11-4.07,35.83-7.64,1.47-.45,2.98-.95,4.29-1.73,3.13-1.86,4.82-4.68,4.79-8.37-.06-6.54-6.01-10.94-12.54-9.22-2.47.65-4.84,1.63-7.3,2.33-11.44,3.27-23.13,5.19-34.95,6.37-1.28.13-2.23-.18-3.27-.91-4.33-3.04-9.26-2.85-13.03.7-1.34,1.27-2.72,1.66-4.39,1.69-9.67.14-19.33.47-29,.37-9-.1-18.03.2-26.95-1.91-5.5-1.3-10.75,3.39-11.05,9.07-.28,5.41,3.12,10.37,8.56,11.53,4.16.89,8.49,1.45,12.74,1.43,5.83-.04,11.67-.12,17.5-.22.16,1.06.27,2.13.36,3.18.18,2.09.24,4.19.17,6.28-.52,2.59-.8,5.23-.85,7.87-.05,2.72,4.35,3.46,4.86.66.47-2.58.77-5.18.89-7.79.4-1.89.93-3.75,1.61-5.57.33-.89.69-1.78,1.12-2.63.15-.29.3-.59.49-.86,0,.01.01,0,.04-.04.01.02.03.04.04.06.19.31.36.64.52.97.6,1.22,1.19,2.48,2.2,3.43.84.8,2,1.46,3.19,1.16.96-.24,1.81-.81,2.47-1.54.57-.64,1-1.37,1.43-2.1.18-.29.35-.61.56-.88.03-.02.06-.05.11-.09.03-.02.04-.04.07-.05,0,0,.06-.03.27-.17-.2.14.02.03.12-.01.06-.01.14-.03.17-.03.55,0,.43-.03.96.15.37.13.85.47,1.24.96,1.28,1.61,1.67,4.11,1.89,6.1.27,2.46.21,4.97-.25,7.4-.24,1.31.36,2.67,1.73,3.04,1.21.33,2.8-.41,3.04-1.73,1.1-6.04,2.54-12.02,4.33-17.89,1.6.64,2.57,1.96,3.56,4.44,6.37,15.93,12.75,31.86,19.12,47.78.25.63.43,1.29.85,2.56-1.15-.83-1.78-1.28-2.4-1.75-3.81-2.83-7.53-5.77-11.43-8.46-10.31-7.1-21.36-12.95-32.42-18.76-13.56-7.12-27.24-14.03-40.72-21.32-2.77-1.5-5.51-3.05-8.22-4.66-.44-19-.72-38-.83-57-.07-11.9-.08-23.81-.02-35.71.7-.6.99-1.57.8-2.53,0-.05,0-.09,0-.12,0-.02.01-.04.02-.07,0,0,0,0,0,0,.19-.24.09-.13.01-.05,0,0,0,0,0,0,.01-.02.03-.04.05-.06.08-.09.17-.18.27-.26.18-.11.35-.21.53-.31-.01.02.35-.12.4-.13.1-.03.67-.1.6-.11.23,0,.45,0,.68,0,.04,0,.07,0,.09,0,.03.01.06.03.11.04.13.03.26.07.38.11,0,0,.02,0,.03.01.12.06.24.13.35.21.03.03.08.07.13.11.2.19.4.38.58.6-.09-.1.34.5.41.62.07.12.41.79.36.66.26.61.44,1.27.59,1.92.67,2.92.64,6.36.73,9.55,0,.09,0,.18,0,.27-.13,3.82-.15,7.65-.07,11.47.06,3.19,4.83,3.18,4.95,0,.14-3.65.17-7.31.09-10.96,0-.18,0-.36-.01-.54.01-.31.02-.61.03-.92.04-.98.06-1.97.14-2.96,0-.01.05-.45.05-.47.05-.29.11-.59.18-.88.08-.3.16-.61.28-.9-.05.14.27-.5.31-.57.02-.03.04-.05.05-.08.05-.06.11-.11.16-.16,0,0,.02-.01.03-.02.02,0,.04,0,.06,0,0,0,.01,0,.02,0,.01,0,.03.01.04.02.05.05.1.1.15.15.14.22,0-.02,0-.06,0,0,0,0,0,0,.01.02.05.09.14.23.22.38.43.75.62,1.15.11.24.21.48.32.72-.32-.74.4.94.31.74.95,2.23,2.24,4.44,4.76,5.09,1.54.4,2.75-.59,3.03-1.92.91.23,1.88.04,2.52-.68.59.68.85,1.53,1.09,2.53.35,1.49.42,2.83.58,4.51.74,7.83,1.47,15.67,2.21,23.5.12,1.33,1.05,2.47,2.47,2.47,1.28,0,2.55-1.13,2.47-2.47-.38-7.19-.75-14.57.74-21.61,7.57,10.26,11.56,21.97,11.16,35.47-.06,1.9.03,3.85.36,5.72.92,5.27,5.12,8.8,10.07,8.68,4.97-.13,9-3.84,9.81-9.05.08-.54.11-1.09.14-1.64.65-13.37-1.58-26.15-7.58-38.22-3.82-7.68-8.74-14.58-14.73-20.65-13.6-13.8-29.41-23.72-49.06-26.07-18.67-2.23-34.37,3.86-46.65,18.14-8.84,10.29-13.51,22.48-14.78,35.89-1.58,16.68,2.91,31.81,12.59,45.41,5.38,7.57,12.05,13.92,19.22,19.76.75.61,1.47,1.25,2.5,2.14-1.56.68-2.68,1.18-3.84,1.69-3.3-4.38-7.38-6.49-12.53-4.43-5.69,2.27-6.9,7.03-5.89,12.7-1.07.5-2.01.94-3.02,1.41-1.84-3.85-3.53-7.49-5.29-11.09-7.8-16.02-18.23-30.09-31.31-42.2-7.16-6.63-15.11-12.03-24.31-15.49-12.42-4.67-24.89-1.71-33.55,8.32-2.54,2.94-4.78,6.25-6.62,9.68-6.03,11.22-8.46,23.45-9.36,36.03-.81,11.4-.43,22.79.7,34.15.07.69.04,1.39.06,2.17-.37-.13-.58-.14-.69-.25-.88-.93-1.73-1.88-2.61-2.81-9.89-10.43-21.6-17.69-35.95-19.94-11.95-1.88-21.95,1.9-29.58,11.48-5.75,7.23-8.58,15.61-9.58,24.67-1.19,10.85.1,21.5,3.11,31.94,6.44,22.39,18.55,41.33,35.25,57.42,2.9,2.79,6.03,5.31,9.36,7.53-.31,14.4-.91,28.79-1.59,43.18-5.75,1.31-11.49,2.72-17.21,4.25-17.21,4.58-34.23,9.76-50.51,17.09-3.9,1.76-7.7,3.79-11.38,5.97-2.09,1.24-4.04,2.86-5.71,4.64-3.67,3.9-4.59,9.73-2.85,14.52.55,16.3.76,32.61.62,48.92-.15,18.22-.74,36.44-1.76,54.64-.57,10.28-1.29,20.54-2.14,30.8-.23,2.75,4.38,3.41,4.86.66.67-3.85,1.34-7.7,2-11.55.17-1-.12-2.02-.88-2.62.97-13.74,1.71-27.49,2.19-41.26.64-18.21.85-36.44.62-54.66-.08-6.11-.2-12.22-.37-18.33.05-.07.1-.15.15-.24.31.16.62.31.94.43,1.46,4.39,1.83,9.13.95,13.7-.25,1.31.37,2.67,1.73,3.04,1.24.34,2.76-.42,3.04-1.73,1.17-5.32,2.34-10.63,3.51-15.95.13-.09.26-.18.38-.27.61.41,1.21.83,1.82,1.24,1.7,1.16,3.55-.44,3.72-2.14.24-2.42,1.17-5.13,2.49-7.36.5-.84,1.07-1.67,1.7-2.45,3.12-1.38,6.22-2.8,9.34-4.18.16,1.03.21,2.09.31,3.11.2,2.01.35,4.02.45,6.03.19,3.63.21,7.26.09,10.89-.05.79-.08,1.58-.1,2.37-.03,1.34,1.16,2.47,2.47,2.47,1.4,0,2.41-1.13,2.47-2.47.04-.75.07-1.51.09-2.26.35-6.03,1.6-11.96,3.69-17.63.84-2.28,1.92-5.1,3.98-6.41.19-.12.38-.23.58-.32-.04.04.59-.18.68-.2.07-.02.47-.07.49-.08.24-.01.48-.01.72,0,.02.01.39.06.46.08.13.03.27.08.4.12,0,0,.02,0,.03.01.08.04.46.32.47.3.06.06.12.12.18.18.02.03.06.09.11.17.92,1.47,3.43,1.74,4.27,0,1.39-2.85,3.51-5.2,6.11-6.81,2.37-.76,4.75-1.49,7.14-2.21.03.06.08.12.1.21.12.54.11.67.13,1.4.12,3.4.22,6.8.33,10.2.13,3.86.25,7.71.38,11.57.04,1.34,1.11,2.47,2.47,2.47,1.46,0,2.33-1.14,2.47-2.47,1.06-9.5,4.15-18.72,8.88-27,.48.47.94.95,1.42,1.42.11.11.22.22.34.32-.69,14.1-1.38,28.19-2.07,42.29-.98,19.99-1.95,39.97-2.93,59.96-.12,2.55-.25,5.09-.37,7.64-.16,3.18,4.79,3.18,4.95,0,.99-20.28,1.98-40.56,2.97-60.84.77-15.76,1.54-31.51,2.31-47.27.17-.04.33-.09.5-.15,2.97-1.09,2.95-4.41,4.53-6.53.05-.06.1-.12.14-.18,14.07-3.2,28.32-5.7,42.69-7.66,15.13-2.06,30.31-3.52,45.52-4.51-.02,6.53-.02,13.07,0,19.6-7.96,1.61-15.86,3.58-23.68,5.96-6.1,1.86-12.14,3.92-18.18,5.97-3.24,1.1-5.4,3.35-6.33,6.66-.97,3.46-.13,6.84,1.82,9.33.27,4.67.04,9.4-.03,14.04-.12,7.42-.26,14.84-.43,22.26-.28,11.87-.63,23.75-1.05,35.62-.24.37-.37.8-.33,1.26.06.85.13,1.7.19,2.55-.06,1.63-.12,3.26-.18,4.89-.32,8.34-.68,16.67-1.07,25-.07,1.5,1.66,2.95,3.13,2.39,5.89-2.26,4.8-9.33,4.42-14.35-.45-5.97-.91-11.95-1.36-17.92.18-4.94.35-9.87.51-14.81.47-14.9.83-29.81,1.07-44.72.02-1.36.06-2.73.09-4.1.69-.12,1.34-.52,1.68-1.17.8-1.48.99-2.97,1.23-4.61.07-.47.16-1.08.35-1.59.07-.18.28-.5.45-.72.06,0,.12,0,.18,0,.25.56.48,1.53.51,2.2.16,3.19,0,6.43,0,9.63,0,3.4-.02,6.8-.02,10.19,0,1.34,1.14,2.47,2.47,2.47,1.43,0,2.37-1.14,2.47-2.47.28-3.48.58-6.95.94-10.43.33-3.13.58-6.34,1.25-9.42.28-1.28.54-2.19,1.17-3.2.27-.43.47-.72.98-1.1-.06.05.08-.03.21-.1-.03.03.33-.11.46-.15.12,0,.24-.01.35-.01.1,0,.54.09.38.04.18.04.36.09.54.15-.08-.02.22.13.33.18.05.02.08.04.11.04.01.02.03.04.06.06.06.06.12.12.17.18.01.02.03.04.04.07,0,0,0,0,0,0,0,0,0,.01,0,.02,0,0,0,0,0,0-.06-.06-.1-.08,0,.04-.59,2.69,3.04,4.27,4.53,1.86,2.74-4.43,7.54-7.5,12.6-8.18,1.81,2.7,2.61,6.1,2.83,9.28.18,2.59.07,5.19-.15,7.77-.19,1.51-.35,3.02-.49,4.53-.12,1.33,1.23,2.47,2.47,2.47,1.47,0,2.31-1.14,2.47-2.47.18-1.44.35-2.89.48-4.36.21-1.68.45-3.35.72-5.02.22,12.71.53,25.43.93,38.13.1,3.18,5.05,3.19,4.95,0-.44-13.79-.77-27.58-.99-41.38-.06-3.6-.11-7.2-.15-10.8,1.52,1.3,3.53,1.75,5.57,1.06,2.34-.79,3.87-2.51,5.43-4.32.64-.75,1.31-1.49,1.97-1.88.59-.35,1.18-.37,1.73-.19.96.3,1.28.44,2.21.9,1.05.51,2.11,1.05,3.23,1.4,2.31.72,4.61.3,6.47-1.22.69-.56,1.25-1.23,1.83-1.9.26-.3.52-.6.8-.88.12-.12.24-.24.37-.35,0,0,.11-.06.2-.12.04-.01.15-.06.25-.1.03,0,.06.01.07,0,.05.04.11.08.14.1.08.09.17.19.16.16.04.07.09.14.13.21.02.03.22.45.21.4.1.25.17.52.24.78.04.16.08.32.12.48.02.08.12.77.12.69.05.49.07.98.08,1.47.04,1.62.07,3.25.11,4.87.07,3.31.14,6.62.21,9.93.07,3.18,4.95,3.19,4.95,0,0-6.9,1.18-13.77,3.5-20.26,8.78-.66,17.6-1,26.43-1.1,5.65-.06,11.3.24,16.94.37,5.24.12,9.28-2.84,10.33-7.56,1.32-5.99-3-11.41-9.43-11.75-1.54-.08-3.1.03-4.65.03-15.68.02-31.35.24-47,1.43-11.06.84-22.03,2.18-32.88,4.17,0-2.48-.02-4.95-.02-7.43,0-3.84,0-7.68.02-11.52,11.8-.69,23.61-1.1,35.45-1.28,29.68-.47,59.33.04,88.9,2.4-.05,3.17-.1,6.34-.16,9.51-.26,15.25-.56,30.49-.9,45.74-.04,1.93-.09,3.87-.13,5.8-.07,3.19,4.88,3.19,4.95,0,.35-15.47.66-30.94.94-46.41.08-4.75.16-9.49.24-14.24,4.61.4,9.22.85,13.82,1.34,18.07,1.95,36.01,4.81,53.76,8.68,3.7.81,7.38,1.67,11.05,2.58.36,2.14.63,4.29.82,6.45.52,5.94.5,11.91.25,17.86-.15,3.47-.36,6.94-.6,10.41-12.74,1-25.37,2.92-37.87,6.09-14.36,3.65-28.23,8.75-42.1,13.84-1.1.4-2.16,1.02-3.1,1.72-3.32,2.48-4.63,6.61-3.44,10.49.45,1.45,1.21,2.75,2.2,3.81-1.15,10.08-1.54,20.24-1.11,30.38.16,3.8.44,7.6.82,11.39.13,1.33,1.04,2.47,2.47,2.47s2.4-1.13,2.47-2.47c.43-7.91.87-15.81,1.3-23.72.2-3.73.32-7.47.65-11.19.12-1.36.33-2.71.69-4.01.83-.06,1.66-.2,2.48-.41.01,0,.03.01.04.02,1.14.52,2.48.32,3.21-.62-.18,7.1-.36,14.19-.54,21.29-.07,2.74,4.3,3.43,4.86.66,1.11-5.43,2.51-10.79,4.23-16.05.87-2.66,1.81-5.3,2.83-7.9.42-1.07.85-2.15,1.3-3.21.04-.11.1-.22.17-.34.37-.13.73-.27,1.1-.4,1.97.99,4.45.62,6.33-.46,1.28-.74,2.25-1.74,3.19-2.8,2.08-.67,4.16-1.31,6.24-1.93.05.13.13.33.13.34.16.47.29.96.4,1.45.05.25.1.5.14.75.01.07.03.13.03.17,0,.04,0,.1.02.18.05.49.09.99.1,1.48.06,1.66.08,3.32.12,4.98.04,1.7.08,3.41.12,5.11-.06,1.59-.03,3.18.11,4.77.12,1.33,1.05,2.47,2.47,2.47,1.32,0,2.51-1.13,2.47-2.47-.03-1.5-.07-3-.1-4.49.25-6.32,2.16-12.51,5.56-17.85,9.47-2.29,19.05-3.99,28.78-5.01-.12,2.27-.21,4.54-.26,6.81-.17,6.89-.11,13.79.16,20.67.05,1.34,1.1,2.47,2.47,2.47,1.3,0,2.53-1.13,2.47-2.47-.37-9.32-.29-18.64.13-27.94,4.53-.36,9.1-.58,13.69-.64,23.49-.3,46.89,1.01,70.16,4.03,7.14.93,14.27,1.89,21.4,2.89-.11,1.93-.22,3.86-.32,5.8-.22,4.01-.45,8.01-.67,12.02-.45,8.08-.9,16.16-1.36,24.23-.07,1.34,1.19,2.47,2.47,2.47,1.48,0,2.3-1.14,2.47-2.47.92-6.89,1.82-13.79,2.75-20.68.69-5.12,1.53-10.77,3.62-15.7.59-1.39,1.33-2.77,2.2-4.07.27.04.53.08.8.12.8.8,1.74,1.47,2.78,1.95,1.34.62,2.75,1,4.23,1.03,1.5.03,2.8-.59,4.25-.75.08,0,.3-.04.36-.03,0,0,.2.07.29.09.01.02.01.05.03.07.14.23,0,0-.03-.04.07.1.13.22.19.33-.04-.06.13.44.16.55.02.09.11.67.11.57.02.24.04.48.04.72.02.73-.02,1.47-.04,2.2l-.34,10.53c-.13,4.03-.26,8.06-.39,12.09-.04,1.22.97,2.29,2.15,2.43,1.11.13,2.52-.54,2.72-1.77.77-4.82,1.53-9.63,2.3-14.45.36-2.24.66-4.5,1.1-6.73.34-1.71.73-3.25,1.59-4.63.15-.25.34-.51.55-.75.8.13,1.61.26,2.41.39.12.24.24.47.35.72,1.49,3.15,3.53,6.32,7.56,5.79,2.24-.29,4.11-1.63,5.79-3.06.37-.31.71-.63,1.07-.92,1.46.26,2.92.53,4.37.79.56,1.7,1.3,3.33,2.89,4.32,2.77,1.72,5.88.42,8.57-.73.12-.05.79-.33.61-.26.25-.1.5-.2.75-.29.28-.1.56-.2.85-.28.11-.03.22-.05.33-.08.22.04.45.09.67.13.01.04.05.05.11.02.03,0,.05.01.08.02.07.16.18.4.23.65.42,2.06.35,4.82.37,7.09.02,2.63-.08,5.27-.3,7.89-.13,1.61-.32,3.21-.54,4.8-.73,3.48-1.45,6.97-2.18,10.45-.27,1.31.38,2.67,1.73,3.04,1.29.35,2.69-.43,3.04-1.73.95-3.52,1.7-7.09,2.23-10.7.65-3.13,1.31-6.27,1.96-9.4.5-2.4,1.02-5.11,1.92-7.23.13-.3.46-.97.71-1.39.13-.23.27-.45.42-.67.08-.11.15-.22.23-.33,0,0,.03-.04.08-.09.09-.11.18-.21.28-.31.19.04.38.08.58.12.15.25.3.51.46.76.81,1.36,2.76,1.64,3.89.5.1-.1.2-.19.3-.29,10.89,2.32,21.76,4.77,32.6,7.33,7.28,1.72,14.59,3.41,21.73,5.62,11.41,3.54,22.68,7.55,34.03,11.29,9.79,3.23,19.61,6.37,29.44,9.51,1.39.44,2.82.82,4.26.99,3.6.42,6.67-.74,9.02-3.55.63-.76,1.09-1.66,1.63-2.5.27-1.25.55-2.5.82-3.74-.09-.25-.27-.51-.26-.76Z"/>
  <path class="bg-red" d="M558.34,1514.28c5.76,22.54,11.47,45.09,17.19,67.64.22.87.4,1.74.61,2.7-.44.19-.75.35-1.08.46-5.62,1.91-7.93,5.49-7.46,11.48.09,1.09.05,2.18.04,3.28-.09,6.29-.22,12.57-.25,18.86-.01,2.35.21,4.7.32,7.05-.84-.62-1.26-1.37-1.59-2.16-2.49-5.98-4.95-11.98-7.44-17.96-1.09-2.61-2.08-5.29-3.45-7.74-.95-1.71-2.26-3.39-3.8-4.57-5.93-4.55-14.32-1.12-15.62,6.24-.41,2.34.06,4.54.96,6.67,2.28,5.38,4.54,10.76,6.83,16.13,4.89,11.43,10.27,22.61,17.32,32.9,2.6,3.8,5.15,7.63,10.15,8.43.16,1.09.29,1.89.39,2.7,2.41,19.55,4.8,39.11,7.25,58.65.21,1.7.59,3.46,1.3,5,1.7,3.67,4.79,5.49,8.79,5.41,3.89-.08,6.71-2.06,8.41-5.6,1.08-2.26.94-4.59.51-6.97-.81-4.49-1.73-8.96-2.33-13.48-3.35-25.42-5.71-50.93-7.26-76.52-.06-.98-.04-1.96-.06-2.94.65.66.94,1.38,1.16,2.12,6.7,23.04,13.4,46.08,20.1,69.12.75,7.04,9.69,10.83,14.68,11.57.09.01.18,0,.27,0,4.82.25,9.01-1.53,12.66-4.41,3.28-2.59,6.38-5.46,9.33-8.43,10.84-10.91,18.96-23.78,26.32-37.17.35-.64.61-1.33.85-2.02,1.2-3.56.7-6.83-1.7-9.77-.38-.46-.72-.96-1.18-1.58,6.89-4.44,11.97-10.37,15.96-17.22,6.96-11.93,11.58-24.77,14.19-38.32.34-1.76.36-3.66.08-5.43-.66-4.14-4.05-7.21-8.17-7.72-4-.5-7.95,1.52-9.67,5.26-.75,1.62-1.02,3.47-1.41,5.24-.47,2.13-.7,4.33-1.28,6.43-1.96,7.16-4.8,13.97-8.3,20.51-2.56,4.77-5.6,9.2-9.81,12.7-4.55,3.78-9.55,4.33-14.83,1.83-5.47-2.6-9.9-6.48-13.28-11.52-.38-.56-.64-1.21-.98-1.88.45-.17.69-.31.95-.34,11.05-1.25,20.2-6.33,27.46-14.51,10.45-11.77,13.31-25.23,7.57-40.18-.22-.57-.44-1.15-.9-2.32,2.69,1.39,4.84,2.51,6.99,3.62,18.32,9.49,37.39,17.34,56.19,25.8,16.48,7.41,32.75,15.23,48.21,24.62,11.59,7.04,22.43,15.02,31.66,25.04,7.18,7.8,13.06,16.44,16.77,26.42,5.8,15.64,5.67,31.15-1.98,46.17-7.03,13.8-20.94,25.7-43.47,20.9-2.99-.64-5.9-1.45-8.72-2.43.67-10.76,1.34-21.53,2.01-32.29.33-5.34.66-10.68,1-16.02.83.21,1.7.28,2.61.24,1.07,4.4,1.11,9.05.1,13.48-.71,3.11,3.78,4.34,4.77,1.32,2.18-6.6,3.41-13.51,3.68-20.46.2-.45.37-.92.52-1.42.77-2.56.12-5.02-.68-7.5-1.78-5.55-3.58-11.11-5.08-16.74-1.24-4.66-1.93-9.47-3.12-14.15-.69-2.71-1.63-5.43-2.92-7.9-1.63-3.13-4.48-4.96-6.81-5.53-5.6-1.28-9.81.3-12.17,3.89-2.33,3.54-2.09,7.79.44,11.55.84,1.25,1.51,2.71,1.85,4.17,2.46,10.49,5.37,20.85,9.23,30.92.67,1.76,1.56,3.55,2.75,4.99.02.02.04.04.06.06-.86,13.86-1.72,27.73-2.59,41.59-.16,2.63-.33,5.27-.49,7.9-4.36-1.9-8.51-4.25-12.47-7.07.28-3.74.56-7.47.85-11.21.64-8.41,1.33-17.07-.16-25.41,2.71-.78,5.1-2.74,6.3-5.66,1.19-2.88.86-5.72-.43-8.49-1-2.15-2.08-4.27-3.05-6.43-3.92-8.67-6.72-17.74-9.6-26.78-.52-1.65-1.07-3.32-1.88-4.83-2.1-3.92-6.08-5.89-10.27-5.26-4.16.62-7.33,3.73-8.28,8.26-.55,2.31-.28,4.75.54,7.11,2.66,7.68,5.39,15.33,8.52,22.83-.11.42-.13.89-.06,1.35.97,6.92,1.34,13.92,1.15,20.9-.39,3.18-.6,6.37-.6,9.58,0,1.34,1.14,2.47,2.47,2.47,1.45,0,2.34-1.14,2.47-2.47.31-3.1.5-6.21.58-9.32.1-.82.22-1.65.36-2.47.27-1.62.54-3.28.97-4.87.5.69,1.05,1.34,1.66,1.9.06.06.13.11.19.17,0,.39,0,.78,0,1.18,0,4.15,0,8.29.01,12.44,0,1.34,1.14,2.47,2.47,2.47s2.2-.97,2.43-2.17c-.02,3.5-.25,7-.51,10.47-.26,3.57-.53,7.14-.8,10.71-8.6-6.84-16.13-14.77-23.06-23.31-9.88-12.16-17.38-25.67-22.42-40.52-1.56-4.59-2.84-9.24-2.92-14.15-.02-.99-.22-2-.5-2.95-1.19-3.95-4.65-6.63-8.68-6.81-4.13-.18-7.86,2.01-9.27,5.91-.66,1.82-.94,3.95-.73,5.87.37,3.43.96,6.89,1.95,10.19,1.39,4.67,2.96,9.21,4.69,13.63.78,4.19,1.15,8.47,1.27,12.71.27,9.45-.55,18.91-1.17,28.34-1.35,20.62-2.69,41.24-4.04,61.85-.76,11.62-1.52,23.24-2.28,34.87-.18,2.74,4.4,3.43,4.86.66,1.03-6.17,2.07-12.35,3.1-18.52.22-1.29-.33-2.61-1.65-3.02.91-13.92,1.82-27.84,2.73-41.76.68-10.37,1.36-20.75,2.03-31.12.48-7.29,1.09-14.59,1.32-21.9.34-.27.67-.53,1.01-.8.73,1.2,1.12,2.59,1.29,3.99.33,2.77.12,5.59,0,8.37-.22,5.11-.44,10.22-.66,15.34-.14,1.85-.22,3.7-.24,5.56-.03,3.2,4.81,3.17,4.95,0,.08-1.86.16-3.72.24-5.58.33-4.37,1-8.72,2.02-13,.36-1.51.77-3.02,1.21-4.51,0-.02.01-.04.02-.06.1.31.2.61.29.92.47,1.54.88,3.1,1.23,4.67.77,3.42,1.22,6.87,1.4,10.37.05.99.73,2.21,1.82,2.39,1.86.3,3.38-.17,5.03-1.01.31-.16.63-.33.94-.48.02-.01.17-.08.22-.1.13-.04.26-.08.38-.13,0,0,.1-.03.17-.05.1,0,.23-.02.27-.02,0,0,0,0,.01,0,.04.03.09.05.13.08.01.02.02.03.04.05.02.03.07.08.1.13.11.19.28.51.25.44.09.24.17.5.23.75.03.1.18.89.17.79.24,1.79.15,3.66.14,5.46,0,8.32-.72,16.62-1.69,24.88-.54,4.56-1.15,9.12-1.77,13.67-.18,1.32.32,2.66,1.73,3.04,1.21.33,2.79-.41,3.04-1.73,2.24-11.53,4.59-23.04,7.07-34.53.22,1.19.29,2.42.2,3.64-.09,1.28,1.21,2.55,2.47,2.47,1.89-.11,3.11-1.32,3.98-2.81.21.99.3,2.04.4,3,.69,6.94-.46,13.87-1.63,20.69-.23,1.32.35,2.67,1.73,3.04,1.26.35,2.73-.42,3.04-1.73,1.63-6.77,3.26-13.54,4.89-20.32,1.94,1.5,3.93,2.96,5.95,4.39.33.24.67.47,1.01.7-1.48,19.53-2.95,39.05-4.43,58.58-.87,11.45-1.73,22.89-2.6,34.34-.1,1.33,1.21,2.47,2.47,2.47,1.42,0,2.37-1.14,2.47-2.47,1.55-20.46,3.09-40.92,4.64-61.37.72-9.53,1.44-19.06,2.16-28.59,4.1,2.35,8.39,4.26,12.84,5.77-.37,5.99-.75,11.99-1.12,17.98-.27,4.34-.54,8.68-.81,13.02-.06,1.01-.11,2.04.41,2.97.62,1.1,2,1.82,3.25,1.47,2.27-.62,2.84-3.45,1.32-4.85,0-.06,0-.12,0-.18.05-.85.11-1.71.16-2.56.11-1.78.22-3.55.33-5.33.22-3.48.43-6.97.65-10.45.22-3.53.44-7.06.66-10.59,4.03,1.08,8.18,1.87,12.42,2.37,19.76,2.35,36.19-4.07,49.14-18.98,12.17-14.02,17.26-30.67,16.67-49.08-.54-16.75-6.45-31.69-16-45.29-7.52-10.71-16.86-19.62-27.19-27.57-12.7-9.78-26.56-17.66-40.67-25.16-18.87-10.02-38.52-18.37-57.91-27.28-12.27-5.64-24.49-11.37-35.99-18.5-6.84-4.24-13.38-8.88-19.3-14.34-3.85-3.56-7.17-7.55-9.5-12.28-1.55-3.15-2.52-6.43-2.04-10.03.7-5.2,3.18-9.23,7.57-12.12,5.06-3.32,10.64-5.2,16.58-6.06,21.75-3.15,42.15.71,61.02,12.05,7.55,4.54,14.55,9.8,19.72,17.09,1.52,2.15,2.96,4.43,3.97,6.84,1.5,3.61,1.99,7.32.07,11.11-.71,1.39-.94,3.18-.87,4.77.16,3.76,2.09,6.56,5.49,8.21,3.52,1.7,6.95,1.31,10.09-.95,3.1-2.24,4.9-5.44,5.7-9.08,1.97-9.02.59-17.61-3.85-25.68-4.28-7.78-10.03-14.35-16.99-19.83-21.87-17.22-46.73-25.41-74.56-24.49-9.26.31-18.35,1.58-27.06,4.96-4.36,1.69-8.5,3.79-12.28,6.56-12.97,9.48-17.94,25.86-12.37,40.95,3.16,8.58,8.51,15.66,15.16,21.84.77.71,1.5,1.46,2.47,2.4-.81.15-1.24.26-1.68.3-6.07.49-11.21,3.04-15.7,7.03-3.8,3.37-6.79,7.41-9.04,11.93-9.07,18.19-10.4,37.07-4.23,56.35,3.74,11.69,11.12,20.84,21.39,27.61,6.05,3.99,12.57,6.63,19.92,6.86.58.02,1.16.15,1.79.23-3.28,9.04-19.35,29.5-28.82,36.58-.42-1.17-.79-2.08-1.08-3.02-2.33-7.3-4.75-14.57-6.97-21.91-13.9-46.06-25.4-92.73-35.99-139.64-1.65-7.3-3.12-14.63-4.86-21.91-.54-2.27-1.36-4.62-2.65-6.53-4.28-6.34-13.7-5.99-17.39.59-2.2,3.92-2.36,7.96.02,11.98.69,1.16,1.25,2.44,1.58,3.74Z"/>
  <!-- Crown / king motif -->
  <path class="bg-yellow" d="M478.46,158.95c-32.07,57.7-50.8,96.57-32.24,113.19,5.31,4.75,16.19,4.66,29.55,1.93-.03,1.06-.09,2.13-.09,3.19,0,1.23.06,2.48-.01,3.71-.08,1.33-.54,2.42-.91,3.71-.63,2.25-.96,4.54-1.27,6.85-.05.34-.1.67-.15,1.01-.12-.02-.25-.04-.36-.04-1.25-.02-2.21.22-3.24,1.41-1.27,1.46-1.77,3.62-.98,5.35.91,2,2.39,2.16,3.5,2.16-.03.38-.1.76-.12,1.15-.12,2.44-.35,4.9-.36,7.34-.01,1.83.26,3.4.91,5.08.38,1.34,1.06,2.51,2.05,3.5,1.28,1.08,1.87,1.46,1.84,1.23.81.45,1.69.81,2.72.95,2.78.37,6.68-.95,7.91-3.8.4-.94.74-1.78,1.03-2.62.58-.04,1.04-.43,1.32-.79.23-.29.2-.53.11-.78.17,0,.35,0,.52.04.56.12.8,1.5,3.07-1.36.75-.95.8-1.17.84-1.33.17-.71,0-1.56-.09-1.96-.09-.4-.4-.75-.5-1.2-.15-.65.04-1.12-1.03-2.07-1.13-1-.83-.64-1.44-.71-1.26-.14-1.73.72-1.96,1.46,0-2.49,0-4.94-.21-7.43-.13-1.47-.2-3.05-.29-4.66.21-.2.42-.41.57-.65.39-.59.66-1.26.31-1.88-.12-.21-.9-.54-1.13-.73-.24-2.54-.67-5.06-1.58-7.27-.12-2.49.03-4.97.15-7.46.07-1.38.1-2.74.1-4.12.78-.21,1.56-.42,2.35-.65,1.49-.06,2.97-.15,4.46-.27,0,.23-.03.44,0,.69.29,2.55-.41,5.35-1.08,7.78-.35,1.28-.58,2.61-.77,3.93-.11.75-.09,1.58-.27,2.32,0,.01-.67,1.79-.64,1.6-.29,1.47-.43,3.32-.38,4.8.05,1.57.12,3.46.87,4.84.93,1.71,2.24,2.9,4.27,2.95,1.81.05,3.75-1,4.45-2.75.79-1.95.82-4.51.48-6.61-.29-1.72-.55-3.31-1.21-4.84-.41-1.86-.54-3.78-.97-5.64-.2-.87-.6-1.74-.73-2.63-.13-.87-.04-1.84-.05-2.71-.02-1.43.23-2.78.34-4.16.99-.12,1.98-.23,2.96-.37.2,1.36.72,3.17.95,3.72.3.71.37,1.45,1.07,1.79.7.34,1.84-.16,2.23-.27.38-.11.31-.4.66-.59.35-.19.89-.03,1.09-.39.43-.78.84-1.6.81-2.97,0-.42-.7-.94-.85-1.33-.08-.21-.16-.53-.26-.88,2.7-.51,5.38-1.09,8.02-1.75,8.79-2.21,17.47-4.92,25.89-8.28.19.26.44.35.61.37.42.05.8-.17.91-.61.04-.14.03-.26.02-.37.52-.21,1.04-.4,1.55-.62,4.72-2,9.22-4.21,13.52-7,1.74-1.13,3.36-2.46,4.93-3.85.29.13.59.24.92.3.91.15,2.24-.25,3.13-1.12.15.66.45,1.33.94,1.91,1.02,1.21,2.67,1.36,4.17.95,2.14-.59,2.61-1.82,2.76-2.69.31-1.77-1-3.5-2.8-4.07-2.15-.68-3.62.15-4.43,1.16,0-.05-.01-.1-.01-.15-.01-.26-.03-.47-.04-.69.38-.38.76-.76,1.14-1.15,2.65-1.02,4.99-1.89,6.89-2.51,11.81-3.85,8.56-4.05,14.3.17,102.75,75.47,84.01,47.26,80.78-4.14-1.72-27.48-4.66-25.74.55-27.5,11.33-3.81,24.49-9.19,36.99-15.27.03.59.09,1.17.23,1.76.18.75.37,1.49.56,2.24.01.04.02.09.03.13,0,.02-.02.03-.02.06,0,.04.02.1.03.16,0,.05.01.13.02.18,0,.05,0,.09.01.14,0,.06.06.11.07.17,0,.07-.04.13-.03.18,0,.08.03.15.1.18.03.01.06,0,.1,0,.15.59.33,1.18.61,1.71.03.06.05.12.08.18,0,.06,0,.09.02.24-.01.77.11,1.57.17,2.33.03.39.06.78.09,1.17.02.27-.02.91.09,1.17.39-.26.51-.15.38.32-.03.45.06.89.26,1.3.34.76,1.03,1.42,1.81,1.73.83.33,1.72.24,2.52-.09.3.07.63.03.8-.26.06-.1.07-.17.1-.25.26-.21.51-.43.71-.7,1.09-1.45.83-3.81.93-5.55.02-.37.09-.77.07-1.15.02-.18.02-.22.02-.27.01-.03.02-.06.04-.08.49-.94.74-1.99,1-3.01.18-.71.36-1.43.55-2.13.31-1.13.37-2.27.33-3.44-.03-.84,0-1.72-.09-2.55-.07-.55-.22-1.08-.41-1.61,2.07-1.12,4.08-2.25,6.04-3.39-.14.84-.26,1.68-.44,2.51-.74,3.59-1.29,7.05-2.34,10.58-1.21,4.03-1.24,8.61-1.16,12.8.09,4.71.16,9.31,2.62,13.49,2.65,4.5,9.94,4.42,12.29-.34,2.04-4.13,2.01-8.39,1.99-12.88-.01-4.17.06-8.77-1.06-12.8-1.01-3.64-1.34-7.1-1.82-10.82-.36-2.8-.27-5.63-.64-8.39,3.74-2.5,7.06-5.01,9.93-7.48.14.1.28.21.45.26.45.12.73.1.94,0,.21-.11.36-.17.55-.32s.55-.59.63-.82c.14-.42-.04-.68-.2-1.21,2.14-2.04,3.93-4.04,5.25-5.99.23-.35.41-.7.62-1.05.16.16.32.33.5.48,1.74,1.37,3.01,1.02,3.8.63,1.61-.8,2.22-2.88,1.61-4.67-.66-1.94-2-2.69-3.21-2.86.67-2.72.79-5.47.45-8.17.18,0,.36.04.54.04,2.97.03,4.78-2.91,3.01-5.46-.87-1.25-1.93-2.32-3.04-3.34.28-1.28.48-1.01.15-2.4-.16-.68-.33-1.84-.29-2.54.12-1.82-1.9-2.87-3.81-2.36-.9.24-1.98,1.18-2.41,2.37,0,0,0,.01,0,.02-2.09-2.71-4.63-5.11-7.45-7.1-.63-1.88-1.93-2.67-2.91-2.79-.61-.08-1.17-.06-1.69.02-4.23-2.18-8.43-3.72-18.71-7.14-1.16-.51-2.31-1.06-3.48-1.56.12.02.24.02.35-.05.28-.17.37-.64.33-.96-.06-.46-.28-.55-.46-.61-.36-.12-.79.08-.96.44-.21.43-.08.73.1.9-.16-.07-.33-.14-.49-.21-7.77-3.29-15.59-6.47-23.56-9.25.04-.35,0-.71-.16-1.03-.52-1.02-1.27-1.03-1.73-1.02-.41,0-.8.17-1.14.41.27-.87.3-1.92-.5-2.64-.45-.41-.72-.44-1.25-.31-.57.15-1.06.53-1.42.91-.33.36-.55.82-.71,1.31-2.53-.85-5.07-1.65-7.66-2.26-3.16-.75-6.45-1.05-9.66-1.61.12-.1.21-.23.36-.29.53-.23,1.11-.47,1.07-1.05-.03-.46-.4-.72-.76-1.01-.51-.42-1.39-.93-2.01-1.14-.62-.21-.93-.28-1.4.18-.17.16-.82.66-.94.86-.39.59-.51.84-.6,1.28-.01.08-.02.15-.04.22-.5-.12-.98-.13-1.45-.11-3.49-1.03-6.22-1.87-8.36-2.64.02-.09.01-.18-.06-.25-.12-.12-.24-.11-.3-.07-.06.04-.03.11-.06.17-9.7-3.58-6.95-6.04-11.12-22.17-12.97-50.23-17.41-97.73-53.05-65.97-75.47,67.26-16.99,54.02-86.86,45.57-13.51-1.63-35.27-.84-43,10.28-4.14,5.95-3.24,14.99-.29,24.67-1.79,5.55.15,12.35,2.53,17.46,2.66,5.72,6.15,11.26,9.84,16.42-.15.25-.26.51-.29.73-.05.37.08.72.18,1.07-.72.56-1.38,1.12-1.62,1.38-.53.57-1.18.93-1.2,1.71-.03.77.9,1.62,1.16,1.92.26.31.49.12.81.36.31.25.39.8.8.84.89.08,1.8.12,3.04-.47.38-.18.57-1.02.87-1.32.14-.13.36-.31.6-.51,2.09,2.66,4.27,5.22,6.5,7.75,5.2,7.41,7.12,8.33,5.54,11.96-.24-.53-.61-.96-1.07-1.28-1.12-.8-2.93-.42-4.6.02-2.05.53-3.53,1.74-3.89,3.79-.51,2.92,1.04,4.26,2.16,4.75,1.05.46,2.12.47,3.11.15-.99,1.65-2.14,3.62-3.44,5.95.08-.12.1-.23.03-.37-.12-.24-.36-.23-.46-.21-.21.05-.27.22-.26.45,0,.4.17.48.32.47.1,0,.21-.11.31-.22-.04.07-.08.13-.12.21Z"/>
  <!-- Semi-transparent overlay for text readability -->
  <rect x="0" y="0" width="1080" height="1920" fill="url(#overlayGrad)" opacity="0.3"/>
  <defs>
    <linearGradient id="overlayGrad" x1="0" y1="0" x2="0" y2="1">
      <stop offset="0%" stop-color="#000" stop-opacity="0.2"/>
      <stop offset="40%" stop-color="#000" stop-opacity="0"/>
      <stop offset="70%" stop-color="#000" stop-opacity="0"/>
      <stop offset="100%" stop-color="#000" stop-opacity="0.4"/>
    </linearGradient>
  </defs>
</svg>