<?xml version="1.0" encoding="UTF-8"?>
<svg id="Capa_2" data-name="Capa 2" xmlns="http://www.w3.org/2000/svg" viewBox="0 0 470.77 107.1">
  <defs>
    <style>
      .cls-1 {
        fill: #fde918;
      }

      .cls-2 {
        fill: #010101;
      }
    </style>
  </defs>
  <g id="Capa_1-2" data-name="Capa 1">
    <g>
      <path class="cls-2" d="M131.98,28.42c-5.93,0-10.53,1.73-13.67,5.13-3.13,3.39-4.71,8.29-4.71,14.55v39.31c0,6.27,1.59,11.16,4.71,14.55,3.14,3.41,7.74,5.13,13.67,5.13s10.53-1.73,13.67-5.13c3.13-3.39,4.71-8.28,4.71-14.55v-7.34c0-1.86-1.51-3.37-3.38-3.37h-5.83c-1.86,0-3.38,1.51-3.38,3.37v8.1c0,4.55-1.74,6.67-5.48,6.67s-5.48-2.12-5.48-6.67v-40.82c0-4.62,1.74-6.78,5.48-6.78s5.48,2.15,5.48,6.78v5.4c0,1.86,1.51,3.38,3.38,3.38h5.83c1.86,0,3.38-1.51,3.38-3.38v-4.64c0-6.26-1.59-11.16-4.71-14.55-3.14-3.4-7.74-5.13-13.67-5.13"/>
      <path class="cls-2" d="M191.71,29.29h-6.7c-1.86,0-3.38,1.51-3.38,3.38v29.02h-12.15v-29.02c0-1.86-1.51-3.38-3.38-3.38h-6.48c-1.86,0-3.38,1.51-3.38,3.38v70.2c0,1.86,1.51,3.38,3.38,3.38h6.48c1.86,0,3.38-1.51,3.38-3.38v-29.02h12.15v29.02c0,1.86,1.51,3.38,3.38,3.38h6.7c1.86,0,3.38-1.51,3.38-3.38V32.66c0-1.86-1.51-3.38-3.38-3.38"/>
      <path class="cls-2" d="M232.74,29.29h-27c-1.86,0-3.38,1.51-3.38,3.38v70.2c0,1.86,1.51,3.38,3.38,3.38h27c1.86,0,3.38-1.51,3.38-3.38v-5.4c0-1.86-1.51-3.38-3.38-3.38h-17.14v-20.79h12.93c1.86,0,3.38-1.51,3.38-3.38v-5.4c0-1.86-1.51-3.37-3.38-3.37h-12.93v-19.71h17.14c1.86,0,3.38-1.51,3.38-3.38v-5.4c0-1.86-1.51-3.38-3.38-3.38"/>
      <path class="cls-2" d="M270.62,70.18c-1.73-1.99-4.04-4.31-6.86-6.92-3.33-2.98-5.86-5.66-7.51-7.99-1.6-2.25-2.41-4.91-2.41-7.92,0-2.42.46-4.18,1.35-5.23.88-1.04,2.16-1.54,3.91-1.54s3.03.51,3.91,1.54c.9,1.06,1.35,2.82,1.35,5.23v.76c0,1.68,1.37,3.05,3.05,3.05h6.48c1.68,0,3.05-1.37,3.05-3.05,0-6.26-1.55-11.16-4.6-14.55-3.07-3.41-7.64-5.14-13.57-5.14s-10.5,1.73-13.57,5.14c-3.05,3.39-4.6,8.28-4.6,14.55,0,3.68.64,7,1.89,9.88,1.25,2.86,2.77,5.33,4.54,7.36,1.73,1.98,4.04,4.31,6.86,6.92,3.33,2.98,5.86,5.66,7.51,7.99,1.6,2.25,2.41,4.91,2.41,7.92,0,4.55-1.74,6.67-5.48,6.67s-5.48-2.12-5.48-6.67v-3.02c0-1.68-1.37-3.05-3.05-3.05h-6.48c-1.68,0-3.05,1.37-3.05,3.05v2.27c0,6.27,1.59,11.16,4.71,14.55,3.14,3.41,7.74,5.13,13.67,5.13s10.53-1.73,13.67-5.13c3.13-3.39,4.71-8.28,4.71-14.55,0-3.67-.64-7-1.89-9.88-1.25-2.86-2.77-5.33-4.54-7.36"/>
      <path class="cls-2" d="M311.01,70.18c-1.73-1.99-4.04-4.31-6.86-6.92-3.33-2.98-5.86-5.66-7.51-7.99-1.6-2.25-2.41-4.91-2.41-7.92,0-2.42.46-4.18,1.35-5.23.88-1.04,2.16-1.54,3.91-1.54s3.03.51,3.91,1.54c.9,1.06,1.35,2.82,1.35,5.23v.76c0,1.68,1.37,3.05,3.05,3.05h6.48c1.68,0,3.05-1.37,3.05-3.05,0-6.26-1.55-11.16-4.6-14.55-3.07-3.41-7.64-5.14-13.57-5.14s-10.5,1.73-13.57,5.14c-3.05,3.39-4.6,8.28-4.6,14.55,0,3.68.64,7,1.89,9.88,1.25,2.86,2.77,5.33,4.54,7.36,1.73,1.98,4.04,4.31,6.86,6.92,3.33,2.98,5.86,5.66,7.51,7.99,1.6,2.25,2.41,4.91,2.41,7.92,0,4.55-1.74,6.67-5.48,6.67s-5.48-2.12-5.48-6.67v-3.02c0-1.68-1.37-3.05-3.05-3.05h-6.48c-1.68,0-3.05,1.37-3.05,3.05v2.27c0,6.27,1.59,11.16,4.72,14.55,3.14,3.41,7.74,5.13,13.67,5.13s10.53-1.73,13.67-5.13c3.13-3.39,4.71-8.28,4.71-14.55,0-3.67-.64-7-1.89-9.88-1.25-2.86-2.77-5.33-4.54-7.36"/>
      <path class="cls-2" d="M347.83,63.69l14.49-29.54c.52-1.05.45-2.28-.17-3.27-.62-.99-1.69-1.59-2.86-1.59h-5.84c-1.3,0-2.5.76-3.05,1.93l-13.54,28.67v-27.23c0-1.86-1.51-3.38-3.38-3.38h-6.48c-1.86,0-3.38,1.51-3.38,3.38v70.2c0,1.86,1.51,3.38,3.38,3.38h6.48c1.86,0,3.38-1.51,3.38-3.38v-20.35l2.9-5.46,10.36,27.02c.5,1.3,1.76,2.17,3.15,2.17h6.38c1.12,0,2.16-.55,2.79-1.48.63-.92.76-2.1.35-3.14l-14.96-37.93Z"/>
      <path class="cls-2" d="M378.19,29.29h-6.48c-1.86,0-3.38,1.51-3.38,3.38v70.2c0,1.86,1.51,3.38,3.38,3.38h6.48c1.86,0,3.38-1.51,3.38-3.38V32.66c0-1.86-1.51-3.38-3.38-3.38"/>
      <path class="cls-2" d="M424.41,29.29h-5.18c-1.86,0-3.38,1.51-3.38,3.38v37.46l-10.34-38.34c-.4-1.47-1.74-2.5-3.26-2.5h-10.14c-1.86,0-3.38,1.51-3.38,3.38v70.2c0,1.86,1.51,3.38,3.38,3.38h5.29c1.86,0,3.38-1.51,3.38-3.38v-46.97l12.93,47.85c.4,1.47,1.74,2.49,3.26,2.49h7.44c1.86,0,3.38-1.51,3.38-3.38V32.66c0-1.86-1.51-3.38-3.38-3.38"/>
      <path class="cls-2" d="M461.56,56.12h5.83c1.86,0,3.38-1.51,3.38-3.38v-4.64c0-6.27-1.59-11.16-4.71-14.55-3.14-3.4-7.74-5.13-13.67-5.13s-10.53,1.73-13.67,5.13c-3.13,3.39-4.71,8.29-4.71,14.55v39.31c0,6.27,1.59,11.16,4.71,14.55,3.14,3.4,7.74,5.13,13.67,5.13s10.53-1.73,13.67-5.13c3.13-3.39,4.71-8.28,4.71-14.55v-21.27c0-1.86-1.51-3.38-3.38-3.38h-11.23c-1.86,0-3.38,1.51-3.38,3.38v5.4c0,1.86,1.51,3.37,3.38,3.37h2.03v13.26c0,4.55-1.74,6.67-5.48,6.67s-5.48-2.12-5.48-6.67v-40.82c0-4.62,1.74-6.78,5.48-6.78s5.48,2.15,5.48,6.78v5.4c0,1.86,1.51,3.38,3.38,3.38"/>
      <path class="cls-1" d="M83.23,96.45c-1.83,2.17-2.15,4.42-1.96,6.88.09,1.17.21,2.37-.37,3.51-.35.27-.72.36-1.14.09-.45-1.63-.82-3.26-.96-4.93-.17-2.04-.72-2.42-3.21-2.47-3.1-.07-6.12.53-9.19.73-9.69.63-19.33,1.65-28.93,2.9-3.9.51-8.15-2.29-8.55-5.47-.22-1.7.41-3.19,2.15-4.16,2.27-1.27,4.61-2.19,7.65-2.03,2.64.15,5.35-.45,8.02-.76,10.17-1.16,20.38-1.93,30.62-2.47,2.44-.13,4.5.55,5.8,2.3,1.43,1.92,1.57,4.1.07,5.88"/>
      <path class="cls-1" d="M102.31,29.05c-2.96-1.33-5.81-.93-8.32,1.27-6.43,5.64-12.82,11.31-19.23,16.97-.39.35-.76.72-1.36,1.29-.73-2.99-1.38-5.69-2.04-8.38-2.94-12.02-6.5-23.92-10.26-35.79-1.33-4.19-8.01-5.57-11.46-3.36-1.42.91-1.95,2.16-2.22,3.54-2.4,12.1-4.97,24.17-8.8,36.03-.23.72-.48,1.44-.76,2.25-.79-.43-1.08-1.09-1.5-1.65-11.75-11.84-12.53-11.98-22.94-21.18-2.12-2.32-5.31-3.24-8.74-2.55-3.77.76-5.54,3.3-4.3,6.37,2.67,6.63,4.05,13.09,6.64,19.74,5.2,13.35,3.31,11.03,7.24,24.67.63,2.19,1.18,4.43,3.99,5.6.66.27.3.53-.03.79-1.58,1.29-1.53,2.74-.54,4.23,1.76,2.65,3.15,5.39,3.58,8.4.81,3.21.68,6.46.67,9.7,0,1.76-.08,3.52.35,5.25.32,1.29,1.1,1.62,2.67,1.17.39-.72.19-1.47.15-2.21-.26-4.22-.49-8.44-.82-12.65-.12-1.59.68-2.56,2.39-3.22,2.24-.86,4.61-1.35,7.05-1.32,11.2.15,22.37-.7,33.57-.73,7.04-.02,14.05.29,20.96,1.49,2.72.47,5.13.03,7.13-1.65,1.13-.95,1.2-2.11,1.49-3.34.72-3.07.72-6.16,1.14-9.24,1.02-7.51,2.3-14.99,4.2-22.4,1.07-4.17,2.3-8.3,3.64-12.42.9-2.76-.45-5.29-3.56-6.68M85.15,63.1c-.17.91-.02,1.85-.5,2.72-.21,2.12-.45,4.24-.63,6.36-.05.52-.24.65-.89.55-.89-.13-1.81-.14-2.71-.21-4.76-.14-9.53-.28-14.29-.42-.54.03-1.09.06-1.63.08-5.24.12-10.48.25-15.72.38-.81.03-1.62.05-2.43.08-3.17.31-6.35.13-9.52.2-.67.01-.88-.34-1.25-.66-1.19-1.07-2.17-2.4-4.2-2.58-.55-.05-.63-.36-.61-.76.16-2.56-.57-4.78-3.6-6.12-.27-.12-.44-.49-.52-.77-.46-1.53-.87-3.07-1.3-4.6-.36-.7-.61-1.43-.68-2.2-1.2-3.58-2.42-7.15-3.6-10.73-.18-.55-.59-1.07-.47-2.02,2.73,2.93,4.79,5.85,6.88,8.75.26.36.52.73.78,1.09,1.88,2.13,3.37,4.44,4.97,6.7.91,1.28,1.99,2.37,3.55,3.12h0c.16.03.31.08.47.13.23.05.46.11.69.16,4.45.44,7.31-1.06,8.81-4.52,3.38-7.79,5.92-15.77,8.11-23.82.08-.29,0-.63.52-.83,1.26,4.94,2.71,9.82,3.67,14.78.58,2.44,1.16,4.88,1.74,7.31.4,1.8.96,3.59,1.18,5.41.36,2.98,2.18,4.84,5.73,5.61.7.01,1.4.02,2.1.03,2.02-.22,3.57-1.06,4.93-2.28,3.54-3.19,7.15-6.33,10.73-9.49.4-.35.78-.71,1.45-1.3-.62,3.51-1.15,6.69-1.74,9.85"/>
    </g>
  </g>
</svg>